<?xml version="1.0" encoding="utf-8"?>
<!-- Generator: Adobe Illustrator 25.2.1, SVG Export Plug-In . SVG Version: 6.00 Build 0)  -->
<svg version="1.1" id="Capa_1" xmlns="http://www.w3.org/2000/svg" xmlns:xlink="http://www.w3.org/1999/xlink" x="0px" y="0px"
	 viewBox="0 0 120 60" style="enable-background:new 0 0 120 60;" xml:space="preserve">
<style type="text/css">
	.st0{fill:#FFFFFF;stroke:#000000;stroke-width:0.25;stroke-miterlimit:10;}
</style>
<path class="st0" d="M87.3,33H11.7c-1.1,0-2-0.7-2-1.5v-3c0-0.8,0.9-1.5,2-1.5h75.6c1.1,0,2,0.7,2,1.5v3C89.2,32.4,88.4,33,87.3,33z
	"/>
<path class="st0" d="M66.9,19.1H11.7c-1.1,0-2-0.7-2-1.5v-3c0-0.8,0.9-1.5,2-1.5h55.2c1.1,0,2,0.7,2,1.5v3
	C68.8,18.4,68,19.1,66.9,19.1z"/>
</svg>
